<?xml version="1.0" standalone="no"?><svg xmlns="http://www.w3.org/2000/svg" viewBox="0 0 1440 320"><path fill="#ffb902" fill-opacity="1" d="M0,320L26.7,293.3C53.3,267,107,213,160,165.3C213.3,117,267,75,320,96C373.3,117,427,203,480,202.7C533.3,203,587,117,640,74.7C693.3,32,747,32,800,64C853.3,96,907,160,960,154.7C1013.3,149,1067,75,1120,80C1173.3,85,1227,171,1280,224C1333.3,277,1387,299,1413,309.3L1440,320L1440,320L1413.3,320C1386.7,320,1333,320,1280,320C1226.7,320,1173,320,1120,320C1066.7,320,1013,320,960,320C906.7,320,853,320,800,320C746.7,320,693,320,640,320C586.7,320,533,320,480,320C426.7,320,373,320,320,320C266.7,320,213,320,160,320C106.7,320,53,320,27,320L0,320Z"></path></svg>